<svg width="16" height="16" viewBox="0 0 16 16" fill="none" xmlns="http://www.w3.org/2000/svg">
<path fill-rule="evenodd" clip-rule="evenodd" d="M8 16C12.4183 16 16 12.4183 16 8C16 3.58172 12.4183 0 8 0C3.58172 0 0 3.58172 0 8C0 12.4183 3.58172 16 8 16Z" fill="#F6F7F9"/>
<path d="M5.28307 10.1333C5.07891 10.3333 5.07474 10.7 5.28724 10.9125C5.49974 11.125 5.86641 11.1167 6.06641 10.9167L7.99974 8.98333L9.93307 10.9125C10.1414 11.1208 10.4997 11.125 10.7122 10.9083C10.9247 10.6958 10.9247 10.3375 10.7164 10.1292L8.78724 8.19999L10.7164 6.26666C10.9247 6.05833 10.9247 5.69999 10.7122 5.48749C10.4997 5.27083 10.1414 5.27499 9.93307 5.48333L7.99974 7.41249L6.06641 5.47916C5.86641 5.27916 5.49974 5.27083 5.28724 5.48333C5.07474 5.69583 5.07891 6.06249 5.28307 6.26666L7.21641 8.19999L5.28307 10.1333Z" fill="#2C303E"/>
</svg>
